<svg width="978" height="224" viewBox="0 0 978 224" fill="none" xmlns="http://www.w3.org/2000/svg">
<path d="M278 76.6959C277.993 75.1899 278.579 73.7415 279.631 72.6641C280.684 71.5868 282.118 70.9671 283.624 70.9391H320.936C332.477 70.9391 341.592 74.2439 347.349 79.8675C349.455 81.9956 351.115 84.5227 352.231 87.3007C353.348 90.0787 353.899 93.0516 353.852 96.0453V96.3118C353.852 109.451 345.856 116.247 337.86 119.686C349.827 123.31 359.502 130.346 359.502 144.072V144.285C359.502 161.609 344.923 171.844 322.855 171.844H283.624C282.132 171.816 280.709 171.207 279.659 170.147C278.609 169.087 278.014 167.659 278 166.167V76.6959ZM319.124 115.954C332.823 115.954 342.365 109.744 342.365 97.9109V97.6177C342.365 87.6765 334.369 81.1735 319.977 81.1735H289.247V115.954H319.124ZM323.308 161.689C338.58 161.689 348.121 154.893 348.121 143.646V143.353C348.121 132.399 338.873 126.055 321.283 126.055H289.301V161.689H323.308Z" fill="#D4145A"/>
<path d="M402.065 173.602C381.596 173.602 364.752 157.878 364.752 134.797V134.504C364.752 112.996 379.89 95.6986 400.519 95.6986C422.613 95.6986 435.167 113.742 435.167 133.491C435.188 134.186 435.069 134.878 434.817 135.525C434.566 136.173 434.186 136.763 433.701 137.261C433.215 137.758 432.635 138.153 431.994 138.421C431.353 138.689 430.664 138.825 429.969 138.822H376.106C377.678 154.973 389.085 164.088 402.358 164.088C410.387 164.137 418.112 161.025 423.866 155.426C424.33 155.009 424.871 154.688 425.459 154.481C426.047 154.274 426.67 154.184 427.292 154.217C427.915 154.251 428.524 154.407 429.087 154.676C429.649 154.945 430.153 155.322 430.569 155.786C430.986 156.249 431.307 156.791 431.514 157.378C431.721 157.966 431.811 158.589 431.777 159.212C431.744 159.834 431.588 160.444 431.319 161.006C431.05 161.568 430.673 162.072 430.209 162.489C426.531 166.172 422.134 169.06 417.293 170.972C412.451 172.884 407.267 173.779 402.065 173.602V173.602ZM424.159 130.479C422.987 116.914 415.204 105.08 400.332 105.08C387.353 105.08 377.545 115.901 376.106 130.479H424.159Z" fill="#D4145A"/>
<path d="M476.664 173.602C456.169 173.602 439.352 157.878 439.352 134.797V134.504C439.352 112.996 454.517 95.6986 475.145 95.6986C497.213 95.6986 509.793 113.742 509.793 133.491C509.814 134.186 509.696 134.878 509.444 135.525C509.192 136.173 508.812 136.763 508.327 137.261C507.842 137.758 507.261 138.153 506.62 138.421C505.979 138.689 505.291 138.825 504.596 138.822H450.679C452.278 154.973 463.685 164.088 476.958 164.088C484.979 164.138 492.697 161.026 498.439 155.426C499.314 154.621 500.449 154.158 501.637 154.12C502.607 154.101 503.56 154.382 504.364 154.925C505.169 155.467 505.787 156.244 506.134 157.15C506.48 158.057 506.539 159.048 506.302 159.989C506.065 160.93 505.544 161.775 504.809 162.409C501.135 166.103 496.74 169.003 491.899 170.928C487.058 172.854 481.872 173.764 476.664 173.602V173.602ZM498.732 130.479C497.586 116.914 489.804 105.08 474.932 105.08C461.952 105.08 452.145 115.901 450.679 130.479H498.732Z" fill="#D4145A"/>
<path d="M522.533 152.281V107.133H516.483C515.193 107.099 513.965 106.571 513.052 105.659C512.14 104.746 511.612 103.519 511.579 102.229C511.592 100.932 512.114 99.693 513.03 98.7763C513.947 97.8596 515.186 97.3385 516.483 97.3246H522.533V79.7343C522.518 79.0031 522.65 78.2764 522.919 77.5965C523.188 76.9165 523.59 76.2969 524.101 75.7736C524.612 75.2503 525.222 74.8338 525.895 74.5483C526.568 74.2629 527.292 74.1141 528.023 74.1107C529.508 74.1314 530.926 74.7305 531.977 75.7807C533.027 76.8309 533.626 78.2493 533.646 79.7343V97.3246H552.996C554.305 97.3374 555.559 97.8542 556.497 98.7674C557.435 99.6807 557.985 100.92 558.033 102.229C558.012 103.546 557.47 104.801 556.526 105.72C555.582 106.639 554.313 107.147 552.996 107.133H533.646V150.709C533.646 159.824 538.71 163.128 546.2 163.128C548.495 163.037 550.774 162.698 552.996 162.116C553.628 162.109 554.255 162.227 554.842 162.463C555.428 162.699 555.962 163.049 556.413 163.492C556.864 163.936 557.223 164.464 557.469 165.046C557.715 165.629 557.843 166.254 557.846 166.886C557.837 167.848 557.526 168.782 556.957 169.557C556.388 170.332 555.59 170.908 554.675 171.204C551.197 172.609 547.471 173.297 543.721 173.23C531.621 173.23 522.533 167.313 522.533 152.281Z" fill="#D4145A"/>
<path d="M566.108 71.4988C566.055 70.7367 566.159 69.9719 566.415 69.2519C566.67 68.5319 567.071 67.8721 567.592 67.3135C568.113 66.755 568.744 66.3096 569.444 66.0051C570.145 65.7006 570.901 65.5435 571.665 65.5435C572.428 65.5435 573.184 65.7006 573.885 66.0051C574.585 66.3096 575.216 66.755 575.737 67.3135C576.258 67.8721 576.659 68.5319 576.914 69.2519C577.17 69.9719 577.274 70.7367 577.221 71.4988V110.331C579.725 105.787 583.433 102.022 587.937 99.4503C592.442 96.8782 597.569 95.5985 602.754 95.7521C620.797 95.7521 631.325 107.879 631.325 125.602V167.02C631.378 167.782 631.273 168.547 631.018 169.267C630.763 169.987 630.362 170.646 629.841 171.205C629.32 171.763 628.689 172.209 627.988 172.513C627.288 172.818 626.532 172.975 625.768 172.975C625.004 172.975 624.248 172.818 623.548 172.513C622.847 172.209 622.217 171.763 621.695 171.205C621.174 170.646 620.774 169.987 620.518 169.267C620.263 168.547 620.158 167.782 620.211 167.02V128.294C620.211 114.462 612.722 105.8 599.582 105.8C586.443 105.8 577.221 115.181 577.221 129.174V167.02C577.262 167.758 577.15 168.496 576.89 169.188C576.63 169.88 576.23 170.51 575.713 171.039C575.197 171.568 574.576 171.984 573.891 172.26C573.205 172.536 572.47 172.666 571.731 172.643C570.99 172.654 570.254 172.516 569.566 172.237C568.879 171.958 568.255 171.544 567.731 171.02C567.206 170.496 566.792 169.871 566.514 169.184C566.235 168.497 566.097 167.761 566.108 167.02V71.4988Z" fill="#D4145A"/>
<path d="M639.534 134.984V134.717C639.495 124.404 643.555 114.498 650.82 107.178C658.085 99.8586 667.96 95.7245 678.273 95.6856C688.586 95.6467 698.492 99.7063 705.812 106.971C713.132 114.236 717.266 124.111 717.305 134.424V134.717C717.326 139.848 716.328 144.932 714.368 149.673C712.408 154.414 709.526 158.719 705.888 162.337C702.25 165.955 697.93 168.814 693.178 170.748C688.426 172.682 683.337 173.652 678.206 173.603C673.116 173.663 668.064 172.706 663.348 170.788C658.632 168.869 654.347 166.027 650.745 162.43C647.142 158.832 644.295 154.551 642.37 149.838C640.445 145.125 639.481 140.075 639.534 134.984V134.984ZM705.925 134.984V134.717C705.925 118.726 693.931 105.56 678.206 105.56C662.055 105.56 650.941 118.7 650.941 134.424V134.717C650.941 150.709 662.775 163.715 678.5 163.715C694.651 163.715 705.925 150.709 705.925 134.984Z" fill="#D4145A"/>
<path d="M752.805 173.096H752.219C750.794 173.043 749.42 172.551 748.285 171.687C747.149 170.824 746.308 169.631 745.876 168.272L717.891 105.08C717.514 104.105 717.271 103.083 717.172 102.042C717.216 100.662 717.76 99.3442 718.702 98.3343C719.644 97.3245 720.92 96.6907 722.294 96.5507C723.668 96.4107 725.046 96.774 726.172 97.5731C727.299 98.3722 728.097 99.5529 728.419 100.896L752.406 159.184L776.925 100.549C777.212 99.3894 777.881 98.3593 778.823 97.6246C779.766 96.8899 780.928 96.4933 782.123 96.4983C783.579 96.4983 784.975 97.0768 786.005 98.1064C787.034 99.1361 787.613 100.533 787.613 101.989C787.58 102.905 787.381 103.808 787.027 104.654L759.015 168.272C758.615 169.625 757.8 170.818 756.686 171.683C755.572 172.549 754.215 173.043 752.805 173.096V173.096Z" fill="#D4145A"/>
<path d="M825.086 173.602C804.59 173.602 787.773 157.878 787.773 134.797V134.504C787.773 112.996 802.938 95.6986 823.567 95.6986C845.634 95.6986 858.214 113.742 858.214 133.491C858.236 134.186 858.117 134.878 857.865 135.525C857.613 136.173 857.233 136.763 856.748 137.261C856.263 137.758 855.683 138.153 855.042 138.421C854.401 138.689 853.712 138.825 853.017 138.822H799.127C800.699 154.973 812.106 164.088 825.379 164.088C833.4 164.138 841.118 161.026 846.86 155.426C847.735 154.621 848.87 154.158 850.059 154.12C851.048 154.08 852.024 154.352 852.85 154.898C853.675 155.444 854.308 156.236 854.659 157.162C855.01 158.087 855.061 159.1 854.804 160.056C854.548 161.012 853.997 161.863 853.23 162.489C849.549 166.168 845.152 169.053 840.311 170.965C835.47 172.877 830.288 173.774 825.086 173.602V173.602ZM847.154 130.479C846.008 116.914 838.225 105.08 823.353 105.08C810.374 105.08 800.566 115.901 799.127 130.479H847.154Z" fill="#D4145A"/>
<path d="M867.009 102.228C867.009 100.76 867.583 99.3493 868.609 98.2984C869.635 97.2475 871.031 96.6397 872.499 96.6049C873.241 96.5941 873.977 96.7322 874.664 97.011C875.351 97.2898 875.976 97.7036 876.5 98.228C877.024 98.7524 877.438 99.3766 877.717 100.064C877.996 100.751 878.134 101.487 878.123 102.228V110.224C880.626 105.681 884.334 101.916 888.839 99.3436C893.344 96.7715 898.471 95.4918 903.656 95.6454C921.699 95.6454 932.227 107.772 932.227 125.496V167.019C932.279 167.782 932.175 168.546 931.92 169.266C931.664 169.986 931.263 170.646 930.742 171.205C930.221 171.763 929.591 172.209 928.89 172.513C928.189 172.818 927.434 172.975 926.67 172.975C925.906 172.975 925.15 172.818 924.449 172.513C923.749 172.209 923.118 171.763 922.597 171.205C922.076 170.646 921.675 169.986 921.42 169.266C921.164 168.546 921.06 167.782 921.113 167.019V128.294C921.113 114.462 913.623 105.8 900.484 105.8C887.345 105.8 878.123 115.181 878.123 129.174V167.019C878.164 167.757 878.051 168.496 877.792 169.188C877.532 169.88 877.131 170.51 876.615 171.039C876.099 171.568 875.478 171.984 874.792 172.26C874.107 172.536 873.371 172.666 872.633 172.643C871.891 172.654 871.155 172.516 870.468 172.237C869.781 171.958 869.157 171.544 868.632 171.02C868.108 170.496 867.694 169.871 867.415 169.184C867.136 168.497 866.998 167.761 867.009 167.019V102.228Z" fill="#D4145A"/>
<path d="M936.068 51L927.682 59.3864L969.614 101.318L978 92.9319L936.068 51Z" fill="white"/>
<path d="M969.614 50.9999L927.682 92.9318L936.068 101.318L978 59.3862L969.614 50.9999Z" fill="white"/>
<rect x="1.5" y="1.5" width="221" height="221" rx="110.5" fill="#D4145A" stroke="white" stroke-width="3"/>
<g clip-path="url(#clip0)">
<path d="M112.05 55.4V92.79H119.38C121.279 92.8601 123.076 93.6636 124.394 95.0315C125.713 96.3994 126.449 98.2252 126.449 100.125C126.449 102.025 125.713 103.851 124.394 105.219C123.076 106.586 121.279 107.39 119.38 107.46H114.89C114.95 107.82 114.98 108.19 115.05 108.56C115.12 108.93 115.16 109.11 115.22 109.38C115.45 110.48 115.72 111.56 116.03 112.63C116.13 112.98 116.23 113.32 116.34 113.63C116.5 114.13 116.69 114.63 116.87 115.11C117.18 115.98 117.49 116.85 117.87 117.68C118.25 118.51 118.64 119.38 119.07 120.21C119.5 121.04 119.83 121.65 120.23 122.36C120.52 122.85 120.81 123.36 121.11 123.82C121.56 124.53 122.03 125.24 122.52 125.93C123.01 126.62 123.46 127.24 123.97 127.93L124.16 128.17C124.37 128.44 124.61 128.72 124.84 128.99C125.65 129.99 126.48 130.89 127.37 131.78C135.209 139.641 145.71 144.279 156.8 144.78V55.4H112.05Z" fill="#A67C52"/>
<path d="M211 149.54C210.267 149.439 209.529 149.379 208.79 149.36C208.066 149.286 207.338 149.253 206.61 149.26C206.37 149.26 206.11 149.26 205.87 149.26H159V210.26C159.75 209.92 160.49 209.58 161.21 209.2C161.307 209.161 161.401 209.115 161.49 209.06C180.3 199.476 195.974 184.707 206.66 166.5C207.42 165.22 208.14 163.92 208.84 162.6C209.54 161.28 210.35 159.7 211.05 158.24C212.33 155.573 213.49 152.857 214.53 150.09C213.36 149.84 212.2 149.66 211 149.54Z" fill="#A67C52"/>
<path d="M179.33 144.86L179.52 144.76L179.31 144.86H179.33Z" fill="white"/>
<path d="M213.1 145.38C212.42 145.28 211.72 145.2 211.02 145.12C211.72 145.2 212.42 145.28 213.1 145.38Z" fill="white"/>
<path d="M159 51C159.233 51.0109 159.462 51.0581 159.68 51.14C159.603 51.1007 159.522 51.0673 159.44 51.04C159.295 51.0159 159.148 51.0025 159 51H65.1201C64.9736 50.9901 64.8266 50.9901 64.6801 51C64.5372 51.0377 64.3969 51.0844 64.2601 51.14C64.004 51.2447 63.7725 51.4013 63.5801 51.6V51.6C63.9978 51.2041 64.5546 50.9886 65.1301 51H159Z" fill="white"/>
<path d="M190.42 137.87L190.63 137.68L190.27 137.99L190.42 137.87Z" fill="white"/>
<path d="M160.52 51.65L207.45 98.57C207.654 98.7752 207.816 99.0186 207.925 99.2862C208.035 99.5539 208.091 99.8407 208.09 100.13C208.108 106.582 206.846 112.974 204.378 118.935C201.91 124.896 198.284 130.309 193.71 134.86C198.289 130.308 201.918 124.892 204.388 118.927C206.858 112.962 208.12 106.566 208.1 100.11C208.097 99.5326 207.867 98.9794 207.46 98.57L160.62 51.74L160.54 51.66C160.448 51.557 160.34 51.4692 160.22 51.4C160.15 51.4 160.08 51.4 160.02 51.31C160.2 51.4019 160.368 51.5161 160.52 51.65V51.65Z" fill="white"/>
<path d="M40.6201 142.71L41.8801 143.43L41.9901 143.49C41.5101 143.23 41.0401 142.96 40.5701 142.69L40.6201 142.71Z" fill="white"/>
<path d="M184.81 141.91C185.06 141.77 185.32 141.61 185.56 141.45L185.87 141.24C185.48 141.5 185.08 141.75 184.68 141.99L184.81 141.91Z" fill="white"/>
<path d="M16 100.13C16.0014 99.5445 16.2352 98.9834 16.65 98.57L63.56 51.66L16.64 98.58C16.2328 98.9895 16.003 99.5426 16 100.12C15.9801 106.576 17.2417 112.972 19.7119 118.937C22.182 124.902 25.8115 130.318 30.39 134.87L30.47 134.94L30.39 134.86C25.813 130.311 22.1843 124.899 19.7142 118.937C17.2441 112.976 15.9816 106.583 16 100.13V100.13Z" fill="white"/>
<path d="M183.09 142.93C183.214 142.871 183.334 142.804 183.45 142.73L183.76 142.55L182.89 143.04L183.09 142.93Z" fill="white"/>
<path d="M186.92 140.53C187.04 140.45 187.16 140.35 187.29 140.27L186.72 140.66L186.92 140.53Z" fill="white"/>
<path d="M45.3099 145.09L44.6799 144.81L45.3099 145.09Z" fill="white"/>
<path d="M188.42 139.45C188.7 139.261 188.967 139.054 189.22 138.83C189.22 138.83 189.27 138.83 189.3 138.76L188.4 139.47L188.42 139.45Z" fill="white"/>
<path d="M37.1299 140.49L36.6499 140.15L37.1299 140.49Z" fill="white"/>
<path d="M32.29 136.67L32.44 136.79L32.26 136.64L32.29 136.67Z" fill="white"/>
<path d="M109.85 120.43C109.74 120.69 109.62 120.93 109.5 121.18L109.22 121.74C108.6 123.061 107.903 124.343 107.13 125.58C106.331 126.93 105.45 128.229 104.49 129.47V129.47C104 130.13 103.49 130.78 102.96 131.41C102.81 131.59 102.69 131.77 102.54 131.94V144.27C102.537 145.501 102.778 146.721 103.248 147.859C103.718 148.997 104.408 150.031 105.279 150.902C106.149 151.772 107.183 152.462 108.321 152.932C109.459 153.402 110.679 153.643 111.91 153.64C114.48 153.637 116.944 152.616 118.763 150.8C120.581 148.983 121.605 146.52 121.61 143.95V132V131.94C120.545 130.699 119.543 129.404 118.61 128.06C118.571 128.015 118.534 127.969 118.5 127.92C118.5 127.92 118.5 127.92 118.5 127.92C118.27 127.58 118.04 127.24 117.82 126.92C117.6 126.6 117.43 126.31 117.23 126.02C117.201 125.98 117.177 125.936 117.16 125.89C116.94 125.54 116.73 125.19 116.52 124.83L116.43 124.68C115.66 123.34 114.95 121.97 114.32 120.57L109.85 120.43Z" fill="#D4145A"/>
<path d="M104.72 92.79H112.05V55.4H67.3201V144.79C73.4235 144.488 79.4 142.938 84.8801 140.234C90.3602 137.53 95.2272 133.73 99.1801 129.07C99.6901 128.46 100.18 127.85 100.67 127.22C100.98 126.81 101.29 126.4 101.58 125.98C101.87 125.56 102 125.41 102.19 125.12C102.38 124.83 102.62 124.46 102.83 124.12C103.771 122.654 104.626 121.135 105.39 119.57V119.48C105.39 119.39 105.47 119.3 105.52 119.21C106.1 117.99 106.63 116.74 107.09 115.47C107.33 114.81 107.55 114.14 107.77 113.47V113.37C107.87 113.03 107.96 112.7 108.05 112.37C108.14 112.04 108.23 111.78 108.3 111.48C108.331 111.417 108.351 111.349 108.36 111.28C108.53 110.6 108.69 109.93 108.83 109.28V109.17C108.93 108.64 109.02 108.1 109.11 107.56H104.72C103.734 107.596 102.751 107.434 101.829 107.081C100.907 106.729 100.066 106.195 99.3557 105.51C98.6452 104.825 98.0801 104.004 97.6941 103.096C97.3081 102.188 97.1092 101.212 97.1092 100.225C97.1092 99.2383 97.3081 98.2617 97.6941 97.3537C98.0801 96.4456 98.6452 95.6247 99.3557 94.94C100.066 94.2552 100.907 93.7208 101.829 93.3686C102.751 93.0164 103.734 92.8536 104.72 92.89V92.79Z" fill="#C69C6D"/>
<path d="M159 149.25C158.26 149.25 157.53 149.25 156.8 149.19C145.364 148.716 134.46 144.23 126 136.52V144C125.997 147.737 124.512 151.32 121.871 153.964C119.229 156.607 115.647 158.095 111.91 158.1C110.095 158.105 108.296 157.751 106.619 157.057C104.941 156.363 103.418 155.344 102.136 154.058C100.855 152.772 99.8414 151.245 99.1537 149.565C98.466 147.885 98.1181 146.085 98.13 144.27V136.48C89.6647 144.193 78.7613 148.691 67.32 149.19V194C67.3031 200.761 68.8284 207.437 71.78 213.52C85.3895 218.796 99.9113 221.316 114.503 220.935C129.094 220.554 143.464 217.279 156.78 211.3C157.52 210.98 158.26 210.62 158.98 210.3V149.3L159 149.25Z" fill="white"/>
<path d="M136.97 91.33C137.782 91.33 138.44 90.6719 138.44 89.86C138.44 89.0482 137.782 88.39 136.97 88.39C136.158 88.39 135.5 89.0482 135.5 89.86C135.5 90.6719 136.158 91.33 136.97 91.33Z" fill="#A67C52"/>
<path d="M92.0499 85.46L98.2699 79.24L95.1599 76.13L88.9399 82.35L82.7199 76.13L79.6099 79.24L85.8299 85.46L79.6099 91.68L82.7199 94.79L88.9399 88.57L95.1599 94.79L98.2699 91.68L92.0499 85.46Z" fill="#333333"/>
<path d="M143.28 89.41L131.55 77.68C131.17 77.3029 130.688 77.0466 130.163 76.9434C129.638 76.8401 129.094 76.8946 128.6 77.1C128.106 77.3053 127.684 77.6522 127.386 78.0971C127.089 78.542 126.93 79.0649 126.93 79.6V91.33C126.935 92.0479 127.224 92.7346 127.734 93.2404C128.243 93.7462 128.932 94.03 129.65 94.03H141.38C141.915 94.0303 142.439 93.8714 142.884 93.5735C143.329 93.2756 143.675 92.8521 143.879 92.3569C144.082 91.8617 144.134 91.3171 144.028 90.7924C143.921 90.2676 143.661 89.7864 143.28 89.41V89.41Z" fill="#333333"/>
<path d="M215.52 145.8C214.74 145.64 213.96 145.5 213.18 145.4C213.154 145.391 213.126 145.391 213.1 145.4C212.42 145.3 211.72 145.22 211.02 145.16C209.316 144.983 207.603 144.896 205.89 144.9H179.31L179.52 144.8C180.11 144.53 180.71 144.24 181.29 143.93C181.87 143.62 182.36 143.38 182.89 143.08L183.76 142.59L184.68 142.03C185.08 141.79 185.48 141.54 185.87 141.28L186.72 140.7L187.29 140.31C187.66 140.05 188.03 139.79 188.4 139.51L189.3 138.8L190.3 138.03L190.66 137.72C191.72 136.83 192.73 135.91 193.72 134.92C198.294 130.369 201.92 124.956 204.388 118.995C206.856 113.034 208.118 106.642 208.1 100.19C208.101 99.9007 208.045 99.6139 207.935 99.3463C207.826 99.0786 207.664 98.8352 207.46 98.63L160.52 51.65C160.363 51.5077 160.188 51.3866 160 51.29C159.888 51.2298 159.771 51.1796 159.65 51.14C159.441 51.0611 159.222 51.0139 159 51H65.13C64.8422 50.9996 64.5572 51.056 64.2913 51.1658C64.0253 51.2756 63.7836 51.4367 63.58 51.64V51.64L16.65 98.57C16.2352 98.9833 16.0014 99.5444 16 100.13C15.9816 106.583 17.244 112.976 19.7142 118.937C22.1843 124.899 25.813 130.311 30.39 134.86L30.47 134.94C31.06 135.53 31.64 136.09 32.26 136.64L32.44 136.79C33.04 137.31 33.64 137.79 34.25 138.33H34.32C35.08 138.95 35.86 139.54 36.65 140.1L37.13 140.44C37.95 141.01 38.78 141.57 39.64 142.08C39.88 142.22 40.12 142.38 40.36 142.5L40.57 142.64C41.04 142.91 41.51 143.18 41.99 143.44C42.87 143.91 43.77 144.34 44.68 144.76L45.31 145.04C46.25 145.45 47.19 145.84 48.15 146.19C48.39 146.29 48.63 146.37 48.89 146.45L49.15 146.53C49.95 146.8 50.76 147.02 51.56 147.25C52.36 147.48 52.9 147.66 53.56 147.82C54.7 148.1 55.86 148.3 57.03 148.49C57.3 148.49 57.56 148.61 57.83 148.65H57.92L59.01 148.78C59.34 148.78 59.65 148.87 60.01 148.9C60.89 149 61.79 149.08 62.69 149.12H62.93V194C62.9265 199.821 63.9663 205.596 66 211.05C67.9 211.93 69.84 212.75 71.8 213.49C68.8459 207.418 67.3138 200.753 67.32 194V149.19C78.7612 148.691 89.6647 144.193 98.13 136.48V144.27C98.1247 146.079 98.4765 147.87 99.1653 149.543C99.8541 151.215 100.866 152.735 102.144 154.015C103.421 155.295 104.939 156.311 106.61 157.003C108.28 157.696 110.071 158.051 111.88 158.05C115.614 158.053 119.196 156.576 121.843 153.942C124.489 151.309 125.984 147.734 126 144V136.52C134.46 144.23 145.364 148.716 156.8 149.19C157.53 149.19 158.26 149.25 159 149.25H205.92C206.16 149.25 206.42 149.25 206.66 149.25C207.388 149.243 208.116 149.276 208.84 149.35C209.579 149.369 210.317 149.43 211.05 149.53C212.23 149.65 213.39 149.83 214.53 150.05C214.81 149.37 215.05 148.69 215.29 147.99C215.53 147.29 215.79 146.59 216.03 145.89C215.862 145.849 215.692 145.819 215.52 145.8V145.8ZM121.58 132V144C121.575 146.57 120.551 149.033 118.732 150.85C116.914 152.666 114.45 153.687 111.88 153.69C110.649 153.693 109.429 153.452 108.291 152.982C107.153 152.512 106.119 151.822 105.248 150.951C104.378 150.081 103.688 149.047 103.218 147.909C102.748 146.771 102.507 145.551 102.51 144.32V132C102.66 131.83 102.78 131.65 102.93 131.47C103.46 130.84 103.93 130.19 104.46 129.53C105.419 128.289 106.301 126.99 107.1 125.64C107.872 124.403 108.57 123.12 109.19 121.8C109.25 121.69 109.31 121.57 109.36 121.46C109.41 121.35 109.43 121.31 109.47 121.24C109.59 120.99 109.71 120.75 109.82 120.49V144.12C109.82 144.703 110.052 145.263 110.464 145.676C110.877 146.088 111.436 146.32 112.02 146.32C112.603 146.32 113.163 146.088 113.576 145.676C113.988 145.263 114.22 144.703 114.22 144.12V120.48C114.34 120.75 114.49 121.01 114.62 121.27C114.82 121.69 115 122.11 115.21 122.52C115.53 123.15 115.87 123.76 116.21 124.37C116.21 124.44 116.28 124.52 116.32 124.59L116.41 124.74C116.62 125.1 116.83 125.45 117.05 125.8C117.067 125.846 117.091 125.89 117.12 125.93V125.93C117.32 126.22 117.51 126.53 117.71 126.83V126.91L117.91 127.21C118.05 127.42 118.19 127.64 118.34 127.85C118.374 127.899 118.411 127.945 118.45 127.99C118.498 128.076 118.555 128.156 118.62 128.23C119 128.79 119.4 129.33 119.82 129.87L120.02 130.13C120.47 130.71 120.95 131.29 121.43 131.87L121.58 132ZM67.32 144.79V55.4H156.77V144.74C145.679 144.239 135.179 139.601 127.34 131.74C126.45 130.85 125.62 129.91 124.81 128.95C124.51 128.6 124.22 128.25 123.94 127.89C123.43 127.25 122.94 126.6 122.49 125.89C122.04 125.18 121.49 124.49 121.08 123.78C120.78 123.3 120.49 122.78 120.2 122.32C119.8 121.61 119.4 120.9 119.04 120.17C118.68 119.44 118.21 118.5 117.84 117.64C117.47 116.78 117.18 115.94 116.84 115.07C116.66 114.58 116.47 114.07 116.31 113.59C116.2 113.26 116.1 112.92 116 112.59C115.69 111.52 115.42 110.44 115.19 109.34C115.13 109.07 115.07 108.79 115.02 108.52C114.97 108.25 114.92 107.78 114.86 107.42H119.35C121.248 107.35 123.046 106.546 124.364 105.178C125.682 103.811 126.419 101.985 126.419 100.085C126.419 98.1852 125.682 96.3594 124.364 94.9915C123.046 93.6236 121.248 92.8201 119.35 92.75H104.72C103.734 92.7136 102.751 92.8764 101.829 93.2286C100.907 93.5808 100.066 94.1152 99.3556 94.7999C98.6451 95.4846 98.08 96.3056 97.694 97.2136C97.308 98.1217 97.1091 99.0983 97.1091 100.085C97.1091 101.072 97.308 102.048 97.694 102.956C98.08 103.864 98.6451 104.685 99.3556 105.37C100.066 106.055 100.907 106.589 101.829 106.941C102.751 107.294 103.734 107.456 104.72 107.42H109.23C109.14 107.96 109.05 108.5 108.95 109.03V109.14C108.81 109.83 108.65 110.5 108.48 111.14C108.471 111.209 108.45 111.277 108.42 111.34C108.35 111.64 108.26 111.93 108.17 112.23C108.08 112.53 107.99 112.9 107.89 113.23V113.33C107.67 114.01 107.45 114.68 107.21 115.33C106.75 116.6 106.21 117.85 105.64 119.07L105.47 119.43C104.705 120.995 103.851 122.514 102.91 123.98C102.51 124.61 102.09 125.22 101.66 125.83C101.37 126.25 101.06 126.66 100.75 127.07C100.27 127.7 99.75 128.31 99.26 128.92C95.3116 133.617 90.4378 137.451 84.9425 140.181C79.4472 142.911 73.4484 144.48 67.32 144.79V144.79Z" fill="#333333"/>
<path d="M132.57 82.53C133.347 82.53 134.092 82.8387 134.642 83.3882C135.191 83.9377 135.5 84.6829 135.5 85.46C135.5 85.9555 135.374 86.4429 135.135 86.8766C134.895 87.3103 134.549 87.6762 134.13 87.94C133.662 88.2341 133.122 88.3933 132.57 88.4C132.493 88.4049 132.416 88.4049 132.34 88.4C131.565 88.3709 130.834 88.0352 130.307 87.467C129.78 86.8988 129.501 86.1445 129.53 85.37C129.559 84.5956 129.895 83.8645 130.463 83.3375C131.031 82.8105 131.785 82.5309 132.56 82.56L132.57 82.53Z" fill="white"/>
<path d="M136.97 91.33C137.782 91.33 138.44 90.6719 138.44 89.86C138.44 89.0482 137.782 88.39 136.97 88.39C136.158 88.39 135.5 89.0482 135.5 89.86C135.5 90.6719 136.158 91.33 136.97 91.33Z" fill="#A67C52"/>
</g>
<defs>
<clipPath id="clip0">
<rect width="200" height="169.94" fill="white" transform="translate(16 51)"/>
</clipPath>
</defs>
</svg>
