<svg width="303" height="152" viewBox="0 0 303 152" fill="none" xmlns="http://www.w3.org/2000/svg">
<path d="M38.3 127.08C38.3 129.46 40.19 131.35 42.64 131.35C45.02 131.35 46.91 129.46 46.91 127.08V111.05H68.05C70.22 111.05 71.97 109.3 71.97 107.13C71.97 104.96 70.22 103.21 68.05 103.21H46.91V89.84H71.2C73.37 89.84 75.12 88.09 75.12 85.92C75.12 83.75 73.37 82 71.2 82H42.64C40.19 82 38.3 83.89 38.3 86.34V127.08ZM72.4556 127.36C72.4556 129.6 74.2056 131.35 76.4456 131.35C78.2656 131.35 79.7356 130.37 80.4356 128.62L84.5656 119.17H108.366L112.356 128.34C113.126 130.16 114.526 131.35 116.556 131.35C118.866 131.35 120.616 129.53 120.616 127.22C120.616 126.66 120.476 126.03 120.126 125.4L101.926 84.8C100.946 82.63 99.2656 81.3 96.8156 81.3H96.3956C93.9456 81.3 92.1956 82.63 91.2156 84.8L73.0156 125.4C72.6656 126.1 72.4556 126.73 72.4556 127.36ZM87.8556 111.54L96.4656 91.73L105.076 111.54H87.8556ZM126.456 127.08C126.456 129.46 128.346 131.35 130.796 131.35C133.176 131.35 135.066 129.46 135.066 127.08V113.92H145.916L157.816 129.11C158.796 130.44 160.056 131.35 162.016 131.35C164.116 131.35 166.146 129.74 166.146 127.36C166.146 126.03 165.586 125.12 164.746 124.07L155.366 112.24C161.946 110.21 166.496 105.45 166.496 97.61V97.47C166.496 93.2 165.026 89.56 162.436 86.9C159.286 83.82 154.456 82 148.296 82H130.796C128.346 82 126.456 83.89 126.456 86.34V127.08ZM135.066 106.29V89.84H147.596C153.966 89.84 157.746 92.71 157.746 97.96V98.1C157.746 103.07 153.826 106.29 147.666 106.29H135.066ZM173.542 127.15C173.542 129.53 175.362 131.35 177.742 131.35C180.122 131.35 182.012 129.53 182.012 127.15V97.82L193.912 115.67C194.822 117.07 195.942 117.91 197.482 117.91C199.092 117.91 200.212 117.07 201.122 115.67L213.092 97.68V127.08C213.092 129.39 215.052 131.35 217.362 131.35C219.812 131.35 221.702 129.46 221.702 127.08V86.06C221.702 83.68 219.812 81.72 217.362 81.72H216.452C214.702 81.72 213.442 82.49 212.532 83.96L197.622 107.27L182.782 84.03C181.942 82.7 180.682 81.72 178.792 81.72H177.882C175.432 81.72 173.542 83.68 173.542 86.06V127.15ZM247.964 131.7C258.254 131.7 265.464 126.24 265.464 117.07V116.93C265.464 108.81 260.144 105.1 249.784 102.58C240.334 100.34 238.094 98.66 238.094 94.88V94.74C238.094 91.52 241.034 88.93 246.074 88.93C249.924 88.93 253.564 90.19 257.344 92.64C258.044 93.06 258.744 93.27 259.584 93.27C261.824 93.27 263.644 91.52 263.644 89.28C263.644 87.6 262.734 86.41 261.754 85.85C257.344 82.91 252.374 81.3 246.214 81.3C236.484 81.3 229.484 87.11 229.484 95.51V95.65C229.484 104.68 235.364 107.76 245.794 110.28C254.894 112.38 256.854 114.27 256.854 117.77V117.91C256.854 121.55 253.494 124.07 248.174 124.07C242.854 124.07 238.514 122.25 234.454 119.03C233.894 118.61 233.124 118.26 231.934 118.26C229.694 118.26 227.874 120.01 227.874 122.25C227.874 123.65 228.574 124.84 229.554 125.54C235.014 129.6 241.314 131.7 247.964 131.7Z" fill="black"/>
<path d="M38.3 122.08C38.3 124.46 40.19 126.35 42.64 126.35C45.02 126.35 46.91 124.46 46.91 122.08V106.05H68.05C70.22 106.05 71.97 104.3 71.97 102.13C71.97 99.96 70.22 98.21 68.05 98.21H46.91V84.84H71.2C73.37 84.84 75.12 83.09 75.12 80.92C75.12 78.75 73.37 77 71.2 77H42.64C40.19 77 38.3 78.89 38.3 81.34V122.08ZM72.4556 122.36C72.4556 124.6 74.2056 126.35 76.4456 126.35C78.2656 126.35 79.7356 125.37 80.4356 123.62L84.5656 114.17H108.366L112.356 123.34C113.126 125.16 114.526 126.35 116.556 126.35C118.866 126.35 120.616 124.53 120.616 122.22C120.616 121.66 120.476 121.03 120.126 120.4L101.926 79.8C100.946 77.63 99.2656 76.3 96.8156 76.3H96.3956C93.9456 76.3 92.1956 77.63 91.2156 79.8L73.0156 120.4C72.6656 121.1 72.4556 121.73 72.4556 122.36ZM87.8556 106.54L96.4656 86.73L105.076 106.54H87.8556ZM126.456 122.08C126.456 124.46 128.346 126.35 130.796 126.35C133.176 126.35 135.066 124.46 135.066 122.08V108.92H145.916L157.816 124.11C158.796 125.44 160.056 126.35 162.016 126.35C164.116 126.35 166.146 124.74 166.146 122.36C166.146 121.03 165.586 120.12 164.746 119.07L155.366 107.24C161.946 105.21 166.496 100.45 166.496 92.61V92.47C166.496 88.2 165.026 84.56 162.436 81.9C159.286 78.82 154.456 77 148.296 77H130.796C128.346 77 126.456 78.89 126.456 81.34V122.08ZM135.066 101.29V84.84H147.596C153.966 84.84 157.746 87.71 157.746 92.96V93.1C157.746 98.07 153.826 101.29 147.666 101.29H135.066ZM173.542 122.15C173.542 124.53 175.362 126.35 177.742 126.35C180.122 126.35 182.012 124.53 182.012 122.15V92.82L193.912 110.67C194.822 112.07 195.942 112.91 197.482 112.91C199.092 112.91 200.212 112.07 201.122 110.67L213.092 92.68V122.08C213.092 124.39 215.052 126.35 217.362 126.35C219.812 126.35 221.702 124.46 221.702 122.08V81.06C221.702 78.68 219.812 76.72 217.362 76.72H216.452C214.702 76.72 213.442 77.49 212.532 78.96L197.622 102.27L182.782 79.03C181.942 77.7 180.682 76.72 178.792 76.72H177.882C175.432 76.72 173.542 78.68 173.542 81.06V122.15ZM247.964 126.7C258.254 126.7 265.464 121.24 265.464 112.07V111.93C265.464 103.81 260.144 100.1 249.784 97.58C240.334 95.34 238.094 93.66 238.094 89.88V89.74C238.094 86.52 241.034 83.93 246.074 83.93C249.924 83.93 253.564 85.19 257.344 87.64C258.044 88.06 258.744 88.27 259.584 88.27C261.824 88.27 263.644 86.52 263.644 84.28C263.644 82.6 262.734 81.41 261.754 80.85C257.344 77.91 252.374 76.3 246.214 76.3C236.484 76.3 229.484 82.11 229.484 90.51V90.65C229.484 99.68 235.364 102.76 245.794 105.28C254.894 107.38 256.854 109.27 256.854 112.77V112.91C256.854 116.55 253.494 119.07 248.174 119.07C242.854 119.07 238.514 117.25 234.454 114.03C233.894 113.61 233.124 113.26 231.934 113.26C229.694 113.26 227.874 115.01 227.874 117.25C227.874 118.65 228.574 119.84 229.554 120.54C235.014 124.6 241.314 126.7 247.964 126.7Z" fill="#FF0000"/>
<g filter="url(#filter0_f)">
<path d="M38.3 122.08C38.3 124.46 40.19 126.35 42.64 126.35C45.02 126.35 46.91 124.46 46.91 122.08V106.05H68.05C70.22 106.05 71.97 104.3 71.97 102.13C71.97 99.96 70.22 98.21 68.05 98.21H46.91V84.84H71.2C73.37 84.84 75.12 83.09 75.12 80.92C75.12 78.75 73.37 77 71.2 77H42.64C40.19 77 38.3 78.89 38.3 81.34V122.08ZM72.4556 122.36C72.4556 124.6 74.2056 126.35 76.4456 126.35C78.2656 126.35 79.7356 125.37 80.4356 123.62L84.5656 114.17H108.366L112.356 123.34C113.126 125.16 114.526 126.35 116.556 126.35C118.866 126.35 120.616 124.53 120.616 122.22C120.616 121.66 120.476 121.03 120.126 120.4L101.926 79.8C100.946 77.63 99.2656 76.3 96.8156 76.3H96.3956C93.9456 76.3 92.1956 77.63 91.2156 79.8L73.0156 120.4C72.6656 121.1 72.4556 121.73 72.4556 122.36ZM87.8556 106.54L96.4656 86.73L105.076 106.54H87.8556ZM126.456 122.08C126.456 124.46 128.346 126.35 130.796 126.35C133.176 126.35 135.066 124.46 135.066 122.08V108.92H145.916L157.816 124.11C158.796 125.44 160.056 126.35 162.016 126.35C164.116 126.35 166.146 124.74 166.146 122.36C166.146 121.03 165.586 120.12 164.746 119.07L155.366 107.24C161.946 105.21 166.496 100.45 166.496 92.61V92.47C166.496 88.2 165.026 84.56 162.436 81.9C159.286 78.82 154.456 77 148.296 77H130.796C128.346 77 126.456 78.89 126.456 81.34V122.08ZM135.066 101.29V84.84H147.596C153.966 84.84 157.746 87.71 157.746 92.96V93.1C157.746 98.07 153.826 101.29 147.666 101.29H135.066ZM173.542 122.15C173.542 124.53 175.362 126.35 177.742 126.35C180.122 126.35 182.012 124.53 182.012 122.15V92.82L193.912 110.67C194.822 112.07 195.942 112.91 197.482 112.91C199.092 112.91 200.212 112.07 201.122 110.67L213.092 92.68V122.08C213.092 124.39 215.052 126.35 217.362 126.35C219.812 126.35 221.702 124.46 221.702 122.08V81.06C221.702 78.68 219.812 76.72 217.362 76.72H216.452C214.702 76.72 213.442 77.49 212.532 78.96L197.622 102.27L182.782 79.03C181.942 77.7 180.682 76.72 178.792 76.72H177.882C175.432 76.72 173.542 78.68 173.542 81.06V122.15ZM247.964 126.7C258.254 126.7 265.464 121.24 265.464 112.07V111.93C265.464 103.81 260.144 100.1 249.784 97.58C240.334 95.34 238.094 93.66 238.094 89.88V89.74C238.094 86.52 241.034 83.93 246.074 83.93C249.924 83.93 253.564 85.19 257.344 87.64C258.044 88.06 258.744 88.27 259.584 88.27C261.824 88.27 263.644 86.52 263.644 84.28C263.644 82.6 262.734 81.41 261.754 80.85C257.344 77.91 252.374 76.3 246.214 76.3C236.484 76.3 229.484 82.11 229.484 90.51V90.65C229.484 99.68 235.364 102.76 245.794 105.28C254.894 107.38 256.854 109.27 256.854 112.77V112.91C256.854 116.55 253.494 119.07 248.174 119.07C242.854 119.07 238.514 117.25 234.454 114.03C233.894 113.61 233.124 113.26 231.934 113.26C229.694 113.26 227.874 115.01 227.874 117.25C227.874 118.65 228.574 119.84 229.554 120.54C235.014 124.6 241.314 126.7 247.964 126.7Z" fill="#FF0000"/>
</g>
<path d="M20.24 50.02C20.24 51.244 21.176 52.18 22.4 52.18C23.624 52.18 24.596 51.244 24.596 50.02V34.936L30.716 44.116C31.184 44.836 31.76 45.268 32.552 45.268C33.38 45.268 33.956 44.836 34.424 44.116L40.58 34.864V49.984C40.58 51.172 41.588 52.18 42.776 52.18C44.036 52.18 45.008 51.208 45.008 49.984V28.888C45.008 27.664 44.036 26.656 42.776 26.656H42.308C41.408 26.656 40.76 27.052 40.292 27.808L32.624 39.796L24.992 27.844C24.56 27.16 23.912 26.656 22.94 26.656H22.472C21.212 26.656 20.24 27.664 20.24 28.888V50.02ZM52.6459 57.868C55.7059 57.868 57.4339 56.428 59.0539 52.54L66.0019 35.872C66.0739 35.656 66.1819 35.188 66.1819 34.828C66.1819 33.676 65.2459 32.776 64.0939 32.776C62.9779 32.776 62.3659 33.532 62.0059 34.432L57.2539 47.068L52.1419 34.432C51.7459 33.424 51.1339 32.776 50.0179 32.776C48.7939 32.776 47.8579 33.676 47.8579 34.9C47.8579 35.188 47.9659 35.62 48.1099 35.944L55.1659 51.712L55.0219 52.108C54.3019 53.584 53.6179 54.124 52.3219 54.124C51.7099 54.124 51.3139 54.016 50.8099 53.872C50.5939 53.8 50.3779 53.728 50.0179 53.728C49.0819 53.728 48.2539 54.448 48.2539 55.528C48.2539 56.572 48.9739 57.112 49.6219 57.328C50.5219 57.688 51.4219 57.868 52.6459 57.868ZM77.5118 50.02C77.5118 51.208 78.4838 52.18 79.6718 52.18C80.8958 52.18 81.8678 51.208 81.8678 50.02V49.048C83.1998 50.812 85.1798 52.396 88.3478 52.396C92.8478 52.396 97.1678 48.832 97.1678 42.532V42.46C97.1678 36.124 92.8118 32.596 88.3478 32.596C85.2518 32.596 83.2718 34.18 81.8678 36.16V27.7C81.8678 26.476 80.8958 25.54 79.6718 25.54C78.4478 25.54 77.5118 26.476 77.5118 27.7V50.02ZM87.3038 48.616C84.3518 48.616 81.7598 46.168 81.7598 42.532V42.46C81.7598 38.824 84.3518 36.376 87.3038 36.376C90.2558 36.376 92.7398 38.788 92.7398 42.46V42.532C92.7398 46.276 90.2918 48.616 87.3038 48.616ZM103.14 41.164C103.536 38.212 105.408 36.16 108.072 36.16C110.952 36.16 112.608 38.356 112.896 41.164H103.14ZM115.416 49.912C115.74 49.588 115.992 49.12 115.992 48.58C115.992 47.572 115.236 46.816 114.264 46.816C113.76 46.816 113.472 46.96 113.148 47.212C111.924 48.22 110.484 48.868 108.648 48.868C105.84 48.868 103.644 47.14 103.176 44.044H115.092C116.208 44.044 117.144 43.18 117.144 41.956C117.144 37.564 114.156 32.596 108.108 32.596C102.672 32.596 98.8201 37.06 98.8201 42.496V42.568C98.8201 48.436 103.068 52.432 108.576 52.432C111.528 52.432 113.688 51.46 115.416 49.912ZM123.067 41.164C123.463 38.212 125.335 36.16 127.999 36.16C130.879 36.16 132.535 38.356 132.823 41.164H123.067ZM135.343 49.912C135.667 49.588 135.919 49.12 135.919 48.58C135.919 47.572 135.163 46.816 134.191 46.816C133.687 46.816 133.399 46.96 133.075 47.212C131.851 48.22 130.411 48.868 128.575 48.868C125.767 48.868 123.571 47.14 123.103 44.044H135.019C136.135 44.044 137.071 43.18 137.071 41.956C137.071 37.564 134.083 32.596 128.035 32.596C122.599 32.596 118.747 37.06 118.747 42.496V42.568C118.747 48.436 122.995 52.432 128.503 52.432C131.455 52.432 133.615 51.46 135.343 49.912ZM146.089 52.324C147.241 52.324 148.141 52.144 149.077 51.82C149.689 51.568 150.229 50.92 150.229 50.128C150.229 49.12 149.365 48.328 148.393 48.328C148.249 48.328 147.817 48.436 147.313 48.436C145.837 48.436 144.973 47.752 144.973 46.06V36.736H148.393C149.437 36.736 150.301 35.908 150.301 34.864C150.301 33.82 149.437 32.992 148.393 32.992H144.973V29.752C144.973 28.564 144.001 27.592 142.813 27.592C141.589 27.592 140.617 28.564 140.617 29.752V32.992H139.897C138.853 32.992 138.025 33.82 138.025 34.864C138.025 35.908 138.853 36.736 139.897 36.736H140.617V46.744C140.617 50.92 142.885 52.324 146.089 52.324ZM152.718 50.02C152.718 51.244 153.69 52.18 154.878 52.18C156.102 52.18 157.074 51.244 157.074 50.02V41.272C157.074 38.32 158.838 36.556 161.358 36.556C163.95 36.556 165.426 38.248 165.426 41.2V50.02C165.426 51.244 166.398 52.18 167.622 52.18C168.846 52.18 169.782 51.244 169.782 50.02V39.868C169.782 35.476 167.298 32.596 163.014 32.596C160.062 32.596 158.298 34.144 157.074 35.908V27.7C157.074 26.512 156.102 25.54 154.878 25.54C153.654 25.54 152.718 26.512 152.718 27.7V50.02ZM182.278 52.432C188.146 52.432 192.466 47.932 192.466 42.532V42.46C192.466 37.024 188.182 32.596 182.35 32.596C176.518 32.596 172.198 37.096 172.198 42.532V42.604C172.198 48.004 176.482 52.432 182.278 52.432ZM182.35 48.616C178.966 48.616 176.554 45.844 176.554 42.532V42.46C176.554 39.148 178.786 36.412 182.278 36.412C185.698 36.412 188.11 39.184 188.11 42.532V42.604C188.11 45.88 185.878 48.616 182.35 48.616ZM204.803 50.452L211.139 35.908C211.247 35.692 211.391 35.26 211.391 34.864C211.391 33.676 210.455 32.776 209.267 32.776C208.115 32.776 207.539 33.532 207.215 34.288L202.247 46.96L197.351 34.36C196.991 33.46 196.379 32.776 195.191 32.776C194.003 32.776 193.031 33.784 193.031 34.864C193.031 35.26 193.175 35.62 193.283 35.944L199.619 50.452C200.123 51.604 200.915 52.36 202.103 52.36H202.319C203.507 52.36 204.299 51.568 204.803 50.452ZM216.266 41.164C216.662 38.212 218.534 36.16 221.198 36.16C224.078 36.16 225.734 38.356 226.022 41.164H216.266ZM228.542 49.912C228.866 49.588 229.118 49.12 229.118 48.58C229.118 47.572 228.362 46.816 227.39 46.816C226.886 46.816 226.598 46.96 226.274 47.212C225.05 48.22 223.61 48.868 221.774 48.868C218.966 48.868 216.77 47.14 216.302 44.044H228.218C229.334 44.044 230.27 43.18 230.27 41.956C230.27 37.564 227.282 32.596 221.234 32.596C215.798 32.596 211.946 37.06 211.946 42.496V42.568C211.946 48.436 216.194 52.432 221.702 52.432C224.654 52.432 226.814 51.46 228.542 49.912ZM232.916 50.02C232.916 51.244 233.888 52.18 235.076 52.18C236.3 52.18 237.272 51.244 237.272 50.02V41.272C237.272 38.32 239.036 36.556 241.556 36.556C244.148 36.556 245.624 38.248 245.624 41.2V50.02C245.624 51.244 246.596 52.18 247.82 52.18C249.044 52.18 249.98 51.244 249.98 50.02V39.868C249.98 35.476 247.496 32.596 243.212 32.596C240.26 32.596 238.496 34.144 237.272 35.908V34.972C237.272 33.748 236.3 32.776 235.076 32.776C233.852 32.776 232.916 33.748 232.916 34.972V50.02ZM254.665 43.108H261.433C262.585 43.108 263.557 42.136 263.557 40.984C263.557 39.796 262.585 38.824 261.433 38.824H254.665C253.513 38.824 252.541 39.796 252.541 40.984C252.541 42.136 253.513 43.108 254.665 43.108ZM264.238 50.344C264.238 51.424 265.138 52.252 266.254 52.252C267.046 52.252 267.658 51.748 268.162 51.136L272.77 45.196L277.378 51.136C277.918 51.856 278.53 52.252 279.394 52.252C280.474 52.252 281.41 51.46 281.41 50.236C281.41 49.66 281.158 49.156 280.69 48.58L275.362 42.28L280.51 36.124C280.87 35.692 281.122 35.26 281.122 34.648C281.122 33.568 280.222 32.74 279.07 32.74C278.314 32.74 277.702 33.208 277.198 33.856L272.842 39.436L268.558 33.82C268.018 33.136 267.406 32.74 266.542 32.74C265.462 32.74 264.526 33.532 264.526 34.756C264.526 35.332 264.778 35.836 265.246 36.412L270.25 42.352L264.85 48.832C264.454 49.264 264.238 49.732 264.238 50.344Z" fill="black"/>
<path d="M20.24 45.02C20.24 46.244 21.176 47.18 22.4 47.18C23.624 47.18 24.596 46.244 24.596 45.02V29.936L30.716 39.116C31.184 39.836 31.76 40.268 32.552 40.268C33.38 40.268 33.956 39.836 34.424 39.116L40.58 29.864V44.984C40.58 46.172 41.588 47.18 42.776 47.18C44.036 47.18 45.008 46.208 45.008 44.984V23.888C45.008 22.664 44.036 21.656 42.776 21.656H42.308C41.408 21.656 40.76 22.052 40.292 22.808L32.624 34.796L24.992 22.844C24.56 22.16 23.912 21.656 22.94 21.656H22.472C21.212 21.656 20.24 22.664 20.24 23.888V45.02ZM52.6459 52.868C55.7059 52.868 57.4339 51.428 59.0539 47.54L66.0019 30.872C66.0739 30.656 66.1819 30.188 66.1819 29.828C66.1819 28.676 65.2459 27.776 64.0939 27.776C62.9779 27.776 62.3659 28.532 62.0059 29.432L57.2539 42.068L52.1419 29.432C51.7459 28.424 51.1339 27.776 50.0179 27.776C48.7939 27.776 47.8579 28.676 47.8579 29.9C47.8579 30.188 47.9659 30.62 48.1099 30.944L55.1659 46.712L55.0219 47.108C54.3019 48.584 53.6179 49.124 52.3219 49.124C51.7099 49.124 51.3139 49.016 50.8099 48.872C50.5939 48.8 50.3779 48.728 50.0179 48.728C49.0819 48.728 48.2539 49.448 48.2539 50.528C48.2539 51.572 48.9739 52.112 49.6219 52.328C50.5219 52.688 51.4219 52.868 52.6459 52.868ZM77.5118 45.02C77.5118 46.208 78.4838 47.18 79.6718 47.18C80.8958 47.18 81.8678 46.208 81.8678 45.02V44.048C83.1998 45.812 85.1798 47.396 88.3478 47.396C92.8478 47.396 97.1678 43.832 97.1678 37.532V37.46C97.1678 31.124 92.8118 27.596 88.3478 27.596C85.2518 27.596 83.2718 29.18 81.8678 31.16V22.7C81.8678 21.476 80.8958 20.54 79.6718 20.54C78.4478 20.54 77.5118 21.476 77.5118 22.7V45.02ZM87.3038 43.616C84.3518 43.616 81.7598 41.168 81.7598 37.532V37.46C81.7598 33.824 84.3518 31.376 87.3038 31.376C90.2558 31.376 92.7398 33.788 92.7398 37.46V37.532C92.7398 41.276 90.2918 43.616 87.3038 43.616ZM103.14 36.164C103.536 33.212 105.408 31.16 108.072 31.16C110.952 31.16 112.608 33.356 112.896 36.164H103.14ZM115.416 44.912C115.74 44.588 115.992 44.12 115.992 43.58C115.992 42.572 115.236 41.816 114.264 41.816C113.76 41.816 113.472 41.96 113.148 42.212C111.924 43.22 110.484 43.868 108.648 43.868C105.84 43.868 103.644 42.14 103.176 39.044H115.092C116.208 39.044 117.144 38.18 117.144 36.956C117.144 32.564 114.156 27.596 108.108 27.596C102.672 27.596 98.8201 32.06 98.8201 37.496V37.568C98.8201 43.436 103.068 47.432 108.576 47.432C111.528 47.432 113.688 46.46 115.416 44.912ZM123.067 36.164C123.463 33.212 125.335 31.16 127.999 31.16C130.879 31.16 132.535 33.356 132.823 36.164H123.067ZM135.343 44.912C135.667 44.588 135.919 44.12 135.919 43.58C135.919 42.572 135.163 41.816 134.191 41.816C133.687 41.816 133.399 41.96 133.075 42.212C131.851 43.22 130.411 43.868 128.575 43.868C125.767 43.868 123.571 42.14 123.103 39.044H135.019C136.135 39.044 137.071 38.18 137.071 36.956C137.071 32.564 134.083 27.596 128.035 27.596C122.599 27.596 118.747 32.06 118.747 37.496V37.568C118.747 43.436 122.995 47.432 128.503 47.432C131.455 47.432 133.615 46.46 135.343 44.912ZM146.089 47.324C147.241 47.324 148.141 47.144 149.077 46.82C149.689 46.568 150.229 45.92 150.229 45.128C150.229 44.12 149.365 43.328 148.393 43.328C148.249 43.328 147.817 43.436 147.313 43.436C145.837 43.436 144.973 42.752 144.973 41.06V31.736H148.393C149.437 31.736 150.301 30.908 150.301 29.864C150.301 28.82 149.437 27.992 148.393 27.992H144.973V24.752C144.973 23.564 144.001 22.592 142.813 22.592C141.589 22.592 140.617 23.564 140.617 24.752V27.992H139.897C138.853 27.992 138.025 28.82 138.025 29.864C138.025 30.908 138.853 31.736 139.897 31.736H140.617V41.744C140.617 45.92 142.885 47.324 146.089 47.324ZM152.718 45.02C152.718 46.244 153.69 47.18 154.878 47.18C156.102 47.18 157.074 46.244 157.074 45.02V36.272C157.074 33.32 158.838 31.556 161.358 31.556C163.95 31.556 165.426 33.248 165.426 36.2V45.02C165.426 46.244 166.398 47.18 167.622 47.18C168.846 47.18 169.782 46.244 169.782 45.02V34.868C169.782 30.476 167.298 27.596 163.014 27.596C160.062 27.596 158.298 29.144 157.074 30.908V22.7C157.074 21.512 156.102 20.54 154.878 20.54C153.654 20.54 152.718 21.512 152.718 22.7V45.02ZM182.278 47.432C188.146 47.432 192.466 42.932 192.466 37.532V37.46C192.466 32.024 188.182 27.596 182.35 27.596C176.518 27.596 172.198 32.096 172.198 37.532V37.604C172.198 43.004 176.482 47.432 182.278 47.432ZM182.35 43.616C178.966 43.616 176.554 40.844 176.554 37.532V37.46C176.554 34.148 178.786 31.412 182.278 31.412C185.698 31.412 188.11 34.184 188.11 37.532V37.604C188.11 40.88 185.878 43.616 182.35 43.616ZM204.803 45.452L211.139 30.908C211.247 30.692 211.391 30.26 211.391 29.864C211.391 28.676 210.455 27.776 209.267 27.776C208.115 27.776 207.539 28.532 207.215 29.288L202.247 41.96L197.351 29.36C196.991 28.46 196.379 27.776 195.191 27.776C194.003 27.776 193.031 28.784 193.031 29.864C193.031 30.26 193.175 30.62 193.283 30.944L199.619 45.452C200.123 46.604 200.915 47.36 202.103 47.36H202.319C203.507 47.36 204.299 46.568 204.803 45.452ZM216.266 36.164C216.662 33.212 218.534 31.16 221.198 31.16C224.078 31.16 225.734 33.356 226.022 36.164H216.266ZM228.542 44.912C228.866 44.588 229.118 44.12 229.118 43.58C229.118 42.572 228.362 41.816 227.39 41.816C226.886 41.816 226.598 41.96 226.274 42.212C225.05 43.22 223.61 43.868 221.774 43.868C218.966 43.868 216.77 42.14 216.302 39.044H228.218C229.334 39.044 230.27 38.18 230.27 36.956C230.27 32.564 227.282 27.596 221.234 27.596C215.798 27.596 211.946 32.06 211.946 37.496V37.568C211.946 43.436 216.194 47.432 221.702 47.432C224.654 47.432 226.814 46.46 228.542 44.912ZM232.916 45.02C232.916 46.244 233.888 47.18 235.076 47.18C236.3 47.18 237.272 46.244 237.272 45.02V36.272C237.272 33.32 239.036 31.556 241.556 31.556C244.148 31.556 245.624 33.248 245.624 36.2V45.02C245.624 46.244 246.596 47.18 247.82 47.18C249.044 47.18 249.98 46.244 249.98 45.02V34.868C249.98 30.476 247.496 27.596 243.212 27.596C240.26 27.596 238.496 29.144 237.272 30.908V29.972C237.272 28.748 236.3 27.776 235.076 27.776C233.852 27.776 232.916 28.748 232.916 29.972V45.02ZM254.665 38.108H261.433C262.585 38.108 263.557 37.136 263.557 35.984C263.557 34.796 262.585 33.824 261.433 33.824H254.665C253.513 33.824 252.541 34.796 252.541 35.984C252.541 37.136 253.513 38.108 254.665 38.108Z" fill="#00E59D"/>
<path d="M265.328 45.344C265.328 46.424 266.228 47.252 267.344 47.252C268.136 47.252 268.748 46.748 269.252 46.136L273.86 40.196L278.468 46.136C279.008 46.856 279.62 47.252 280.484 47.252C281.564 47.252 282.5 46.46 282.5 45.236C282.5 44.66 282.248 44.156 281.78 43.58L276.452 37.28L281.6 31.124C281.96 30.692 282.212 30.26 282.212 29.648C282.212 28.568 281.312 27.74 280.16 27.74C279.404 27.74 278.792 28.208 278.288 28.856L273.932 34.436L269.648 28.82C269.108 28.136 268.496 27.74 267.632 27.74C266.552 27.74 265.616 28.532 265.616 29.756C265.616 30.332 265.868 30.836 266.336 31.412L271.34 37.352L265.94 43.832C265.544 44.264 265.328 44.732 265.328 45.344Z" fill="#FF0000"/>
<g filter="url(#filter1_f)">
<path d="M20.24 45.02C20.24 46.244 21.176 47.18 22.4 47.18C23.624 47.18 24.596 46.244 24.596 45.02V29.936L30.716 39.116C31.184 39.836 31.76 40.268 32.552 40.268C33.38 40.268 33.956 39.836 34.424 39.116L40.58 29.864V44.984C40.58 46.172 41.588 47.18 42.776 47.18C44.036 47.18 45.008 46.208 45.008 44.984V23.888C45.008 22.664 44.036 21.656 42.776 21.656H42.308C41.408 21.656 40.76 22.052 40.292 22.808L32.624 34.796L24.992 22.844C24.56 22.16 23.912 21.656 22.94 21.656H22.472C21.212 21.656 20.24 22.664 20.24 23.888V45.02ZM52.6459 52.868C55.7059 52.868 57.4339 51.428 59.0539 47.54L66.0019 30.872C66.0739 30.656 66.1819 30.188 66.1819 29.828C66.1819 28.676 65.2459 27.776 64.0939 27.776C62.9779 27.776 62.3659 28.532 62.0059 29.432L57.2539 42.068L52.1419 29.432C51.7459 28.424 51.1339 27.776 50.0179 27.776C48.7939 27.776 47.8579 28.676 47.8579 29.9C47.8579 30.188 47.9659 30.62 48.1099 30.944L55.1659 46.712L55.0219 47.108C54.3019 48.584 53.6179 49.124 52.3219 49.124C51.7099 49.124 51.3139 49.016 50.8099 48.872C50.5939 48.8 50.3779 48.728 50.0179 48.728C49.0819 48.728 48.2539 49.448 48.2539 50.528C48.2539 51.572 48.9739 52.112 49.6219 52.328C50.5219 52.688 51.4219 52.868 52.6459 52.868ZM77.5118 45.02C77.5118 46.208 78.4838 47.18 79.6718 47.18C80.8958 47.18 81.8678 46.208 81.8678 45.02V44.048C83.1998 45.812 85.1798 47.396 88.3478 47.396C92.8478 47.396 97.1678 43.832 97.1678 37.532V37.46C97.1678 31.124 92.8118 27.596 88.3478 27.596C85.2518 27.596 83.2718 29.18 81.8678 31.16V22.7C81.8678 21.476 80.8958 20.54 79.6718 20.54C78.4478 20.54 77.5118 21.476 77.5118 22.7V45.02ZM87.3038 43.616C84.3518 43.616 81.7598 41.168 81.7598 37.532V37.46C81.7598 33.824 84.3518 31.376 87.3038 31.376C90.2558 31.376 92.7398 33.788 92.7398 37.46V37.532C92.7398 41.276 90.2918 43.616 87.3038 43.616ZM103.14 36.164C103.536 33.212 105.408 31.16 108.072 31.16C110.952 31.16 112.608 33.356 112.896 36.164H103.14ZM115.416 44.912C115.74 44.588 115.992 44.12 115.992 43.58C115.992 42.572 115.236 41.816 114.264 41.816C113.76 41.816 113.472 41.96 113.148 42.212C111.924 43.22 110.484 43.868 108.648 43.868C105.84 43.868 103.644 42.14 103.176 39.044H115.092C116.208 39.044 117.144 38.18 117.144 36.956C117.144 32.564 114.156 27.596 108.108 27.596C102.672 27.596 98.8201 32.06 98.8201 37.496V37.568C98.8201 43.436 103.068 47.432 108.576 47.432C111.528 47.432 113.688 46.46 115.416 44.912ZM123.067 36.164C123.463 33.212 125.335 31.16 127.999 31.16C130.879 31.16 132.535 33.356 132.823 36.164H123.067ZM135.343 44.912C135.667 44.588 135.919 44.12 135.919 43.58C135.919 42.572 135.163 41.816 134.191 41.816C133.687 41.816 133.399 41.96 133.075 42.212C131.851 43.22 130.411 43.868 128.575 43.868C125.767 43.868 123.571 42.14 123.103 39.044H135.019C136.135 39.044 137.071 38.18 137.071 36.956C137.071 32.564 134.083 27.596 128.035 27.596C122.599 27.596 118.747 32.06 118.747 37.496V37.568C118.747 43.436 122.995 47.432 128.503 47.432C131.455 47.432 133.615 46.46 135.343 44.912ZM146.089 47.324C147.241 47.324 148.141 47.144 149.077 46.82C149.689 46.568 150.229 45.92 150.229 45.128C150.229 44.12 149.365 43.328 148.393 43.328C148.249 43.328 147.817 43.436 147.313 43.436C145.837 43.436 144.973 42.752 144.973 41.06V31.736H148.393C149.437 31.736 150.301 30.908 150.301 29.864C150.301 28.82 149.437 27.992 148.393 27.992H144.973V24.752C144.973 23.564 144.001 22.592 142.813 22.592C141.589 22.592 140.617 23.564 140.617 24.752V27.992H139.897C138.853 27.992 138.025 28.82 138.025 29.864C138.025 30.908 138.853 31.736 139.897 31.736H140.617V41.744C140.617 45.92 142.885 47.324 146.089 47.324ZM152.718 45.02C152.718 46.244 153.69 47.18 154.878 47.18C156.102 47.18 157.074 46.244 157.074 45.02V36.272C157.074 33.32 158.838 31.556 161.358 31.556C163.95 31.556 165.426 33.248 165.426 36.2V45.02C165.426 46.244 166.398 47.18 167.622 47.18C168.846 47.18 169.782 46.244 169.782 45.02V34.868C169.782 30.476 167.298 27.596 163.014 27.596C160.062 27.596 158.298 29.144 157.074 30.908V22.7C157.074 21.512 156.102 20.54 154.878 20.54C153.654 20.54 152.718 21.512 152.718 22.7V45.02ZM182.278 47.432C188.146 47.432 192.466 42.932 192.466 37.532V37.46C192.466 32.024 188.182 27.596 182.35 27.596C176.518 27.596 172.198 32.096 172.198 37.532V37.604C172.198 43.004 176.482 47.432 182.278 47.432ZM182.35 43.616C178.966 43.616 176.554 40.844 176.554 37.532V37.46C176.554 34.148 178.786 31.412 182.278 31.412C185.698 31.412 188.11 34.184 188.11 37.532V37.604C188.11 40.88 185.878 43.616 182.35 43.616ZM204.803 45.452L211.139 30.908C211.247 30.692 211.391 30.26 211.391 29.864C211.391 28.676 210.455 27.776 209.267 27.776C208.115 27.776 207.539 28.532 207.215 29.288L202.247 41.96L197.351 29.36C196.991 28.46 196.379 27.776 195.191 27.776C194.003 27.776 193.031 28.784 193.031 29.864C193.031 30.26 193.175 30.62 193.283 30.944L199.619 45.452C200.123 46.604 200.915 47.36 202.103 47.36H202.319C203.507 47.36 204.299 46.568 204.803 45.452ZM216.266 36.164C216.662 33.212 218.534 31.16 221.198 31.16C224.078 31.16 225.734 33.356 226.022 36.164H216.266ZM228.542 44.912C228.866 44.588 229.118 44.12 229.118 43.58C229.118 42.572 228.362 41.816 227.39 41.816C226.886 41.816 226.598 41.96 226.274 42.212C225.05 43.22 223.61 43.868 221.774 43.868C218.966 43.868 216.77 42.14 216.302 39.044H228.218C229.334 39.044 230.27 38.18 230.27 36.956C230.27 32.564 227.282 27.596 221.234 27.596C215.798 27.596 211.946 32.06 211.946 37.496V37.568C211.946 43.436 216.194 47.432 221.702 47.432C224.654 47.432 226.814 46.46 228.542 44.912ZM232.916 45.02C232.916 46.244 233.888 47.18 235.076 47.18C236.3 47.18 237.272 46.244 237.272 45.02V36.272C237.272 33.32 239.036 31.556 241.556 31.556C244.148 31.556 245.624 33.248 245.624 36.2V45.02C245.624 46.244 246.596 47.18 247.82 47.18C249.044 47.18 249.98 46.244 249.98 45.02V34.868C249.98 30.476 247.496 27.596 243.212 27.596C240.26 27.596 238.496 29.144 237.272 30.908V29.972C237.272 28.748 236.3 27.776 235.076 27.776C233.852 27.776 232.916 28.748 232.916 29.972V45.02ZM254.665 38.108H261.433C262.585 38.108 263.557 37.136 263.557 35.984C263.557 34.796 262.585 33.824 261.433 33.824H254.665C253.513 33.824 252.541 34.796 252.541 35.984C252.541 37.136 253.513 38.108 254.665 38.108Z" fill="#00E59D"/>
<path d="M265.328 45.344C265.328 46.424 266.228 47.252 267.344 47.252C268.136 47.252 268.748 46.748 269.252 46.136L273.86 40.196L278.468 46.136C279.008 46.856 279.62 47.252 280.484 47.252C281.564 47.252 282.5 46.46 282.5 45.236C282.5 44.66 282.248 44.156 281.78 43.58L276.452 37.28L281.6 31.124C281.96 30.692 282.212 30.26 282.212 29.648C282.212 28.568 281.312 27.74 280.16 27.74C279.404 27.74 278.792 28.208 278.288 28.856L273.932 34.436L269.648 28.82C269.108 28.136 268.496 27.74 267.632 27.74C266.552 27.74 265.616 28.532 265.616 29.756C265.616 30.332 265.868 30.836 266.336 31.412L271.34 37.352L265.94 43.832C265.544 44.264 265.328 44.732 265.328 45.344Z" fill="#FF0000"/>
</g>
<defs>
<filter id="filter0_f" x="18.2998" y="56.2998" width="267.164" height="90.4004" filterUnits="userSpaceOnUse" color-interpolation-filters="sRGB">
<feFlood flood-opacity="0" result="BackgroundImageFix"/>
<feBlend mode="normal" in="SourceGraphic" in2="BackgroundImageFix" result="shape"/>
<feGaussianBlur stdDeviation="10" result="effect1_foregroundBlur"/>
</filter>
<filter id="filter1_f" x="0.240234" y="0.540039" width="302.26" height="72.3281" filterUnits="userSpaceOnUse" color-interpolation-filters="sRGB">
<feFlood flood-opacity="0" result="BackgroundImageFix"/>
<feBlend mode="normal" in="SourceGraphic" in2="BackgroundImageFix" result="shape"/>
<feGaussianBlur stdDeviation="10" result="effect1_foregroundBlur"/>
</filter>
</defs>
</svg>
