<svg width="673" height="146" viewBox="0 0 673 146" fill="none" xmlns="http://www.w3.org/2000/svg">
<path d="M6.90133 17.9C6.90133 15.084 9.45333 12.884 13.4573 12.884C16.6253 12.884 19.4853 13.896 22.3453 16.228L24.3693 13.544C21.2453 11.036 18.0333 9.76 13.5453 9.76C7.69333 9.76 3.42533 13.28 3.42533 18.208C3.42533 23.312 6.68133 25.6 13.7653 27.14C20.2333 28.504 21.7733 30.132 21.7733 33.036C21.7733 36.16 19.0453 38.316 14.9093 38.316C10.6413 38.316 7.56133 36.864 4.34933 33.96L2.19333 36.512C5.88933 39.812 9.89333 41.44 14.7773 41.44C20.8933 41.44 25.2933 38.008 25.2933 32.684C25.2933 27.932 22.1253 25.424 15.2613 23.928C8.48533 22.476 6.90133 20.848 6.90133 17.9ZM53.3059 10.2H31.0419V41H53.5259V37.832H34.5179V27.052H51.3259V23.884H34.5179V13.368H53.3059V10.2ZM70.8584 13.412H81.1984V10.2H56.9984V13.412H67.3384V41H70.8584V13.412ZM111.437 28.768L124.241 10.2H120.193L109.721 25.6L99.3371 10.2H95.1131L107.917 28.812V41H111.437V28.768ZM158.509 25.556C158.509 17.02 152.217 9.672 142.845 9.672C133.473 9.672 127.093 17.108 127.093 25.644C127.093 34.18 133.385 41.528 142.757 41.528C152.129 41.528 158.509 34.092 158.509 25.556ZM154.901 25.644C154.901 32.684 149.885 38.316 142.845 38.316C135.805 38.316 130.701 32.596 130.701 25.556C130.701 18.516 135.717 12.884 142.757 12.884C149.797 12.884 154.901 18.604 154.901 25.644ZM189.688 10.2H186.212V28.108C186.212 34.84 182.604 38.272 176.928 38.272C171.032 38.272 167.512 34.532 167.512 27.888V10.2H164.036V28.108C164.036 36.82 169.228 41.484 176.84 41.484C184.54 41.484 189.688 36.82 189.688 27.844V10.2ZM222.063 41L212.603 28.416C217.443 27.536 220.963 24.544 220.963 19.396C220.963 13.852 216.607 10.2 209.831 10.2H196.587V41H200.063V29.032H208.863L217.795 41H222.063ZM217.443 19.528C217.443 23.532 214.143 25.908 209.523 25.908H200.063V13.412H209.567C214.539 13.412 217.443 15.7 217.443 19.528ZM239.243 10.2V41H242.719V10.2H239.243ZM276.424 16.052V41H279.9V10.2H276.38L265.16 27.008L253.94 10.2H250.42V41H253.808V16.096L265.028 32.552H265.204L276.424 16.052ZM301.951 9.98H298.695L284.659 41H288.223L291.875 32.86H308.639L312.247 41H315.987L301.951 9.98ZM307.275 29.736H293.239L300.279 14.028L307.275 29.736ZM347.405 36.82V24.544H334.689V27.668H344.061V35.324C341.949 37.04 338.693 38.404 335.173 38.404C327.693 38.404 322.985 32.948 322.985 25.556C322.985 18.648 327.869 12.884 334.689 12.884C339.045 12.884 341.685 14.336 344.061 16.404L346.305 13.764C343.225 11.168 340.013 9.672 334.821 9.672C325.581 9.672 319.377 17.152 319.377 25.644C319.377 34.488 325.361 41.528 335.041 41.528C340.233 41.528 344.545 39.372 347.405 36.82ZM354.233 10.2V41H357.709V10.2H354.233ZM388.069 34.884L368.665 10.2H365.409V41H368.797V15.744L388.685 41H391.457V10.2H388.069V34.884ZM413.503 9.98H410.247L396.211 41H399.775L403.427 32.86H420.191L423.799 41H427.539L413.503 9.98ZM418.827 29.736H404.791L411.831 14.028L418.827 29.736ZM443.953 13.412H454.293V10.2H430.093V13.412H440.433V41H443.953V13.412ZM459.812 10.2V41H463.288V10.2H459.812ZM501.041 25.556C501.041 17.02 494.749 9.672 485.377 9.672C476.005 9.672 469.625 17.108 469.625 25.644C469.625 34.18 475.917 41.528 485.289 41.528C494.661 41.528 501.041 34.092 501.041 25.556ZM497.433 25.644C497.433 32.684 492.417 38.316 485.377 38.316C478.337 38.316 473.233 32.596 473.233 25.556C473.233 18.516 478.249 12.884 485.289 12.884C492.329 12.884 497.433 18.604 497.433 25.644ZM529.711 34.884L510.307 10.2H507.051V41H510.439V15.744L530.327 41H533.099V10.2H529.711V34.884ZM574.497 10.2H552.365V41H555.841V27.58H572.517V24.412H555.841V13.412H574.497V10.2ZM605.396 41L595.936 28.416C600.776 27.536 604.296 24.544 604.296 19.396C604.296 13.852 599.94 10.2 593.164 10.2H579.92V41H583.396V29.032H592.196L601.128 41H605.396ZM600.776 19.528C600.776 23.532 597.476 25.908 592.856 25.908H583.396V13.412H592.9C597.872 13.412 600.776 15.7 600.776 19.528ZM632.66 10.2H610.396V41H632.88V37.832H613.872V27.052H630.68V23.884H613.872V13.368H632.66V10.2ZM660.817 10.2H638.553V41H661.037V37.832H642.029V27.052H658.837V23.884H642.029V13.368H660.817V10.2ZM669.79 41V36.38H665.742V41H669.79ZM63.8727 80.892V80.804C63.8727 75.436 60.3527 73.192 54.1047 71.564C48.7807 70.2 47.4607 69.54 47.4607 67.516V67.428C47.4607 65.932 48.8247 64.744 51.4207 64.744C54.0167 64.744 56.7007 65.888 59.4287 67.78L62.9487 62.676C59.8247 60.168 55.9967 58.76 51.5087 58.76C45.2167 58.76 40.7287 62.456 40.7287 68.044V68.132C40.7287 74.248 44.7327 75.964 50.9367 77.548C56.0847 78.868 57.1407 79.748 57.1407 81.464V81.552C57.1407 83.356 55.4687 84.456 52.6967 84.456C49.1767 84.456 46.2727 83.004 43.5007 80.716L39.4967 85.512C43.1927 88.812 47.9007 90.44 52.5647 90.44C59.2087 90.44 63.8727 87.008 63.8727 80.892ZM98.4412 90L85.2412 58.98H78.9932L65.7932 90H72.7012L75.5172 83.092H88.5412L91.3572 90H98.4412ZM86.1212 77.108H77.9372L82.0292 67.12L86.1212 77.108ZM129.155 59.2H121.455L113.975 71.564L106.627 59.2H98.707L110.543 77.856V90H117.319V77.724L129.155 59.2ZM169.97 90V59.2H163.194V71.388H150.698V59.2H143.922V90H150.698V77.636H163.194V90H169.97ZM199.484 90V83.972H182.764V77.504H197.284V71.476H182.764V65.228H199.264V59.2H176.032V90H199.484ZM226.321 90V83.84H210.965V59.2H204.189V90H226.321ZM252.243 90V83.84H236.887V59.2H230.111V90H252.243ZM287.405 74.6V74.512C287.405 65.756 280.585 58.672 271.081 58.672C261.577 58.672 254.669 65.844 254.669 74.6V74.688C254.669 83.444 261.489 90.528 270.993 90.528C280.497 90.528 287.405 83.356 287.405 74.6ZM280.321 74.688C280.321 79.968 276.537 84.28 271.081 84.28C265.625 84.28 261.753 79.88 261.753 74.6V74.512C261.753 69.232 265.537 64.92 270.993 64.92C276.449 64.92 280.321 69.32 280.321 74.6V74.688ZM327.287 65.448V59.2H301.767V65.448H311.139V90H317.915V65.448H327.287ZM362.551 74.6V74.512C362.551 65.756 355.731 58.672 346.227 58.672C336.723 58.672 329.815 65.844 329.815 74.6V74.688C329.815 83.444 336.635 90.528 346.139 90.528C355.643 90.528 362.551 83.356 362.551 74.6ZM355.467 74.688C355.467 79.968 351.683 84.28 346.227 84.28C340.771 84.28 336.899 79.88 336.899 74.6V74.512C336.899 69.232 340.683 64.92 346.139 64.92C351.595 64.92 355.467 69.32 355.467 74.6V74.688ZM405.293 81.552V81.464C405.293 77.328 403.093 75.26 399.529 73.896C401.729 72.664 403.577 70.728 403.577 67.252V67.164C403.577 62.324 399.705 59.2 393.413 59.2H379.113V90H393.765C400.717 90 405.293 87.184 405.293 81.552ZM396.845 68.396C396.845 70.684 394.953 71.652 391.961 71.652H385.713V65.14H392.401C395.261 65.14 396.845 66.284 396.845 68.308V68.396ZM398.561 80.716C398.561 83.004 396.757 84.06 393.765 84.06H385.713V77.284H393.545C397.021 77.284 398.561 78.56 398.561 80.628V80.716ZM439.555 90L426.355 58.98H420.107L406.907 90H413.815L416.631 83.092H429.655L432.471 90H439.555ZM427.235 77.108H419.051L423.143 67.12L427.235 77.108ZM465.12 90V83.84H449.764V59.2H442.988V90H465.12ZM498.919 90L485.719 58.98H479.471L466.271 90H473.179L475.995 83.092H489.019L491.835 90H498.919ZM486.599 77.108H478.415L482.507 67.12L486.599 77.108ZM529.72 90V59.2H523.032V78.164L508.6 59.2H502.352V90H509.04V70.42L523.956 90H529.72ZM562.854 85.028L558.542 80.672C556.122 82.872 553.966 84.28 550.446 84.28C545.166 84.28 541.514 79.88 541.514 74.6V74.512C541.514 69.232 545.254 64.92 550.446 64.92C553.526 64.92 555.946 66.24 558.322 68.396L562.634 63.424C559.774 60.608 556.298 58.672 550.49 58.672C541.03 58.672 534.43 65.844 534.43 74.6V74.688C534.43 83.532 541.162 90.528 550.226 90.528C556.166 90.528 559.686 88.416 562.854 85.028ZM590.41 90V83.972H573.69V77.504H588.21V71.476H573.69V65.228H590.19V59.2H566.958V90H590.41ZM621.735 90L614.211 79C618.127 77.548 620.811 74.424 620.811 69.452V69.364C620.811 63.028 616.455 59.2 609.195 59.2H595.115V90H601.891V80.144H607.215L613.815 90H621.735ZM613.947 69.804C613.947 72.4 612.055 74.16 608.755 74.16H601.891V65.316H608.623C611.923 65.316 613.947 66.812 613.947 69.716V69.804ZM220.795 123.6V123.512C220.795 114.756 213.975 107.672 204.471 107.672C194.967 107.672 188.059 114.844 188.059 123.6V123.688C188.059 132.444 194.879 139.528 204.383 139.528C213.887 139.528 220.795 132.356 220.795 123.6ZM213.711 123.688C213.711 128.968 209.927 133.28 204.471 133.28C199.015 133.28 195.143 128.88 195.143 123.6V123.512C195.143 118.232 198.927 113.92 204.383 113.92C209.839 113.92 213.711 118.32 213.711 123.6V123.688ZM252.854 139V108.2H246.166V127.164L231.734 108.2H225.486V139H232.174V119.42L247.09 139H252.854Z" fill="white"/>
<path d="M302.171 123.6V123.512C302.171 114.756 295.351 107.672 285.847 107.672C276.343 107.672 269.435 114.844 269.435 123.6V123.688C269.435 132.444 276.255 139.528 285.759 139.528C295.263 139.528 302.171 132.356 302.171 123.6ZM295.087 123.688C295.087 128.968 291.303 133.28 285.847 133.28C280.391 133.28 276.519 128.88 276.519 123.6V123.512C276.519 118.232 280.303 113.92 285.759 113.92C291.215 113.92 295.087 118.32 295.087 123.6V123.688ZM331.238 118.936V118.848C331.238 112.556 326.794 108.2 319.446 108.2H306.862V139H313.638V129.76H318.786C325.694 129.76 331.238 126.064 331.238 118.936ZM324.374 119.068C324.374 121.708 322.394 123.732 319.006 123.732H313.638V114.316H318.874C322.262 114.316 324.374 115.944 324.374 118.98V119.068ZM358.252 114.448V108.2H332.732V114.448H342.104V139H348.88V114.448H358.252ZM369.228 139V108.2H362.452V139H369.228ZM406.405 139V108.2H399.101L391.005 121.224L382.909 108.2H375.605V139H382.249V119.024L390.829 132.048H391.005L399.673 118.892V139H406.405ZM419.568 139V108.2H412.792V139H419.568ZM448.209 129.892V129.804C448.209 124.436 444.689 122.192 438.441 120.564C433.117 119.2 431.797 118.54 431.797 116.516V116.428C431.797 114.932 433.161 113.744 435.757 113.744C438.353 113.744 441.037 114.888 443.765 116.78L447.285 111.676C444.161 109.168 440.333 107.76 435.845 107.76C429.553 107.76 425.065 111.456 425.065 117.044V117.132C425.065 123.248 429.069 124.964 435.273 126.548C440.421 127.868 441.477 128.748 441.477 130.464V130.552C441.477 132.356 439.805 133.456 437.033 133.456C433.513 133.456 430.609 132.004 427.837 129.716L423.833 134.512C427.529 137.812 432.237 139.44 436.901 139.44C443.545 139.44 448.209 136.008 448.209 129.892ZM483.57 139V108.2H476.266L468.17 121.224L460.074 108.2H452.77V139H459.414V119.024L467.994 132.048H468.17L476.838 118.892V139H483.57Z" fill="#FF0000"/>
</svg>
